<?xml version="1.0" encoding="UTF-8" standalone="no"?>
<!-- Created with Inkscape (http://www.inkscape.org/) -->

<svg
   width="500mm"
   height="500mm"
   viewBox="0 0 500 500"
   version="1.1"
   id="svg1"
   inkscape:version="1.3.2 (1:1.3.2+202311252150+091e20ef0f)"
   sodipodi:docname="2024_Logo_mainK_with_Limited.svg"
   xmlns:inkscape="http://www.inkscape.org/namespaces/inkscape"
   xmlns:sodipodi="http://sodipodi.sourceforge.net/DTD/sodipodi-0.dtd"
   xmlns="http://www.w3.org/2000/svg"
   xmlns:svg="http://www.w3.org/2000/svg">
  <sodipodi:namedview
     id="namedview1"
     pagecolor="#ffffff"
     bordercolor="#999999"
     borderopacity="1"
     inkscape:showpageshadow="2"
     inkscape:pageopacity="0"
     inkscape:pagecheckerboard="0"
     inkscape:deskcolor="#d1d1d1"
     inkscape:document-units="mm"
     inkscape:zoom="0.40536357"
     inkscape:cx="992.9358"
     inkscape:cy="979.36773"
     inkscape:window-width="1920"
     inkscape:window-height="1021"
     inkscape:window-x="0"
     inkscape:window-y="27"
     inkscape:window-maximized="1"
     inkscape:current-layer="layer1"
     inkscape:export-bgcolor="#ffffff00" />
  <defs
     id="defs1" />
  <g
     inkscape:label="Layer 1"
     inkscape:groupmode="layer"
     id="layer1">
    <path
       id="path2"
       style="stroke-width:5.45064"
       d="M 250.00024 3.1238403 A 246.8763 246.8763 0 0 0 3.1238403 250.00024 A 246.8763 246.8763 0 0 0 250.00024 496.87613 A 246.8763 246.8763 0 0 0 496.87613 250.00024 A 246.8763 246.8763 0 0 0 250.00024 3.1238403 z M 86.021106 78.631893 L 181.1755 78.631893 L 181.1755 180.90782 L 280.95133 78.631893 L 407.40356 78.631893 L 295.23469 180.72334 L 412.44511 349.27532 L 295.23469 349.27532 L 230.32806 237.95343 L 181.1755 283.18375 L 181.1755 349.27532 L 86.021106 349.27532 L 86.021106 78.631893 z M 239.65927 375.39724 C 244.46793 375.39724 248.17295 376.69142 250.77436 379.27969 C 253.37576 381.85482 254.67644 385.46783 254.67644 390.11882 C 254.67644 393.49539 254.10487 396.26779 252.96182 398.43563 C 251.83192 400.59033 250.18969 402.27207 248.03499 403.4808 C 245.89343 404.67639 243.21954 405.27397 240.01377 405.27397 C 236.75545 405.27397 234.05557 404.75489 231.91401 403.71696 C 229.78559 402.67903 228.05784 401.03679 226.73086 398.79013 C 225.40388 396.54346 224.74029 393.73206 224.74029 390.3555 C 224.74029 385.63881 226.05449 381.96628 228.68217 379.3386 C 231.30984 376.71092 234.96886 375.39724 239.65927 375.39724 z M 84.387614 375.88972 L 93.315234 375.88972 L 93.315234 386.80791 L 102.67642 375.88972 L 114.5403 375.88972 L 104.01639 386.78828 L 115.01313 404.78149 L 104.01639 404.78149 L 97.926839 392.89747 L 93.315234 397.72611 L 93.315234 404.78149 L 84.387614 404.78149 L 84.387614 375.88972 z M 131.57646 375.88972 L 141.31179 375.88972 L 152.17056 404.78149 L 142.82952 404.78149 L 141.41049 400.01228 L 131.24108 400.01228 L 129.8422 404.78149 L 120.71718 404.78149 L 131.57646 375.88972 z M 160.73231 375.88972 L 182.80486 375.88972 L 182.80486 382.09761 L 169.6992 382.09761 L 169.6992 387.14278 L 180.89335 387.14278 L 180.89335 392.97653 L 169.6992 392.97653 L 169.6992 404.78149 L 160.73231 404.78149 L 160.73231 375.88972 z M 193.31792 375.88972 L 215.39047 375.88972 L 215.39047 382.09761 L 202.28481 382.09761 L 202.28481 387.14278 L 213.47844 387.14278 L 213.47844 392.97653 L 202.28481 392.97653 L 202.28481 404.78149 L 193.31792 404.78149 L 193.31792 375.88972 z M 265.20862 375.88972 L 273.54506 375.88972 L 284.42347 391.87272 L 284.42347 375.88972 L 292.83897 375.88972 L 292.83897 404.78149 L 284.42347 404.78149 L 273.60397 388.91683 L 273.60397 404.78149 L 265.20862 404.78149 L 265.20862 375.88972 z M 323.56061 375.88972 L 332.48823 375.88972 L 332.48823 397.66668 L 346.42123 397.66668 L 346.42123 404.78149 L 323.56061 404.78149 L 323.56061 375.88972 z M 352.06637 375.88972 L 379.20373 375.88972 L 379.20373 383.02417 L 370.09886 383.02417 L 370.09886 404.78149 L 361.17124 404.78149 L 361.17124 383.02417 L 352.06637 383.02417 L 352.06637 375.88972 z M 389.0269 375.88972 L 402.29017 375.88972 C 404.90472 375.88972 407.01352 376.24478 408.6164 376.95425 C 410.23243 377.66372 411.56561 378.68187 412.61667 380.00885 C 413.66775 381.33582 414.42985 382.87954 414.90284 384.64009 C 415.37582 386.40063 415.61236 388.2664 415.61236 390.23716 C 415.61236 393.32469 415.25781 395.72253 414.54834 397.43052 C 413.85201 399.12537 412.87987 400.55057 411.63172 401.70675 C 410.38358 402.84979 409.04338 403.6119 407.6113 403.99291 C 405.65367 404.51844 403.87992 404.78149 402.29017 404.78149 L 389.0269 404.78149 L 389.0269 375.88972 z M 239.63912 382.15704 C 237.83916 382.15704 236.39395 382.79412 235.30347 384.06855 C 234.21298 385.34297 233.66791 387.45177 233.66791 390.39478 C 233.66791 393.3115 234.20648 395.40679 235.28383 396.68121 C 236.37432 397.95564 237.85253 398.59324 239.71818 398.59324 C 241.6364 398.59324 243.1211 397.96915 244.17218 396.721 C 245.22324 395.47285 245.74882 393.23253 245.74882 390.00048 C 245.74882 387.28083 245.19673 385.29705 244.09311 384.04891 C 243.00262 382.78762 241.51791 382.15704 239.63912 382.15704 z M 397.95452 382.43299 L 397.95452 398.21859 L 400.14198 398.21859 C 402.00764 398.21859 403.33483 398.01506 404.12314 397.60777 C 404.91144 397.18734 405.52851 396.46474 405.97522 395.43995 C 406.42193 394.40201 406.64546 392.72677 406.64546 390.41441 C 406.64546 387.35316 406.1464 385.25787 405.14788 384.12797 C 404.14936 382.99807 402.49362 382.43299 400.18126 382.43299 L 397.95452 382.43299 z M 136.34568 383.37867 L 133.17275 393.7646 L 139.53825 393.7646 L 136.34568 383.37867 z M 258.71237 425.08465 C 260.26128 425.08465 261.44089 425.37403 262.25118 425.95281 C 263.06698 426.52607 263.55204 427.4411 263.70638 428.69786 L 260.17585 428.90457 C 260.08214 428.35887 259.8837 427.96199 259.58054 427.71394 C 259.28288 427.4659 258.86946 427.34187 258.3403 427.34187 C 257.90484 427.34187 257.57687 427.43558 257.35638 427.62299 C 257.1359 427.80489 257.02566 428.02814 257.02566 428.29272 C 257.02566 428.48565 257.11661 428.65928 257.29851 428.81362 C 257.47489 428.97347 257.89382 429.1223 258.55528 429.2601 C 260.19238 429.61288 261.36372 429.97117 262.06927 430.33497 C 262.78034 430.69326 263.29573 431.13975 263.61543 431.67443 C 263.94065 432.20911 264.10326 432.80718 264.10326 433.46863 C 264.10326 434.24584 263.88828 434.96243 263.45834 435.61837 C 263.02839 436.27432 262.42756 436.77317 261.65586 437.11492 C 260.88416 437.45117 259.91126 437.61928 258.73718 437.61928 C 256.67564 437.61928 255.24798 437.22241 254.45424 436.42866 C 253.66048 435.63491 253.21124 434.62618 253.10651 433.40249 L 256.67012 433.17924 C 256.74729 433.75802 256.90439 434.19899 257.14141 434.50216 C 257.52726 434.99274 258.07848 435.23803 258.79506 435.23803 C 259.32973 435.23803 259.74039 435.11401 260.02702 434.86596 C 260.31917 434.6124 260.46524 434.32026 260.46524 433.98953 C 260.46524 433.67534 260.32743 433.39422 260.05183 433.14617 C 259.77622 432.89812 259.13681 432.66386 258.1336 432.44337 C 256.49098 432.07406 255.31964 431.58347 254.6196 430.97163 C 253.91405 430.35978 253.56127 429.5798 253.56127 428.63172 C 253.56127 428.00885 253.74042 427.4218 254.0987 426.87059 C 254.4625 426.31386 255.00545 425.8784 255.72754 425.5642 C 256.45514 425.2445 257.45009 425.08465 258.71237 425.08465 z M 157.02091 425.29135 L 162.58542 425.29135 C 163.68234 425.29135 164.56705 425.44018 165.23953 425.73784 C 165.91752 426.0355 166.47701 426.46269 166.91798 427.01941 C 167.35895 427.57614 167.67865 428.22382 167.87709 428.96245 C 168.07552 429.70107 168.17475 430.48381 168.17475 431.31062 C 168.17475 432.60598 168.02592 433.61195 167.72826 434.32853 C 167.43612 435.03959 167.02822 435.63767 166.50457 436.12273 C 165.98091 436.60229 165.41867 436.92199 164.81785 437.08185 C 163.99653 437.30233 163.25239 437.41258 162.58542 437.41258 L 157.02091 437.41258 L 157.02091 425.29135 z M 286.28227 425.29135 L 289.6557 425.29135 L 289.6557 437.41258 L 286.28227 437.41258 L 286.28227 425.29135 z M 160.76641 428.03641 L 160.76641 434.65926 L 161.68419 434.65926 C 162.46691 434.65926 163.02364 434.57382 163.35437 434.40294 C 163.6851 434.22656 163.94417 433.92338 164.13158 433.49344 C 164.319 433.05798 164.4127 432.35518 164.4127 431.38504 C 164.4127 430.10071 164.20324 429.22152 163.78432 428.74747 C 163.3654 428.27343 162.67086 428.03641 161.70072 428.03641 L 160.76641 428.03641 z M 178.8635 428.43328 C 179.87222 428.43328 180.68251 428.49116 181.29436 428.60691 C 181.90621 428.71716 182.41608 428.95143 182.82398 429.30971 C 183.11062 429.55776 183.33662 429.91054 183.50198 430.36805 C 183.66734 430.82005 183.75002 431.25275 183.75002 431.66616 L 183.75002 435.54396 C 183.75002 435.95737 183.77484 436.28259 183.82444 436.51961 C 183.87957 436.75112 183.99532 437.04878 184.1717 437.41258 L 181.01324 437.41258 C 180.88646 437.18658 180.80377 437.0157 180.76519 436.89995 C 180.72659 436.77868 180.68801 436.59127 180.64944 436.33771 C 180.20847 436.76214 179.77025 437.06531 179.33479 437.24721 C 178.73948 437.48975 178.0477 437.61101 177.25946 437.61101 C 176.21216 437.61101 175.41565 437.36848 174.86995 436.88341 C 174.32976 436.39834 174.05966 435.80027 174.05966 435.0892 C 174.05966 434.42224 174.25534 433.87377 174.6467 433.44383 C 175.03806 433.01388 175.76016 432.69417 176.81298 432.48471 C 178.07526 432.23115 178.89382 432.05477 179.26864 431.95555 C 179.64347 431.85081 180.04035 431.71576 180.45927 431.5504 C 180.45927 431.13699 180.37383 430.84761 180.20295 430.68224 C 180.03207 430.51688 179.73166 430.43419 179.30172 430.43419 C 178.7505 430.43419 178.33709 430.52239 178.06148 430.69878 C 177.84651 430.83658 177.67288 431.09566 177.54058 431.47599 L 174.32424 431.13699 C 174.44551 430.57475 174.61914 430.13378 174.84514 429.81407 C 175.07665 429.48886 175.40738 429.20774 175.83733 428.97072 C 176.14601 428.79984 176.57044 428.66755 177.11064 428.57384 C 177.65082 428.48013 178.23511 428.43328 178.8635 428.43328 z M 195.63715 428.43328 C 196.13324 428.43328 196.6762 428.58762 197.266 428.8963 L 196.2242 431.29409 C 195.82733 431.12873 195.51313 431.04604 195.28162 431.04604 C 194.84065 431.04604 194.49889 431.22794 194.25636 431.59174 C 193.9091 432.10437 193.73546 433.06349 193.73546 434.46909 L 193.73546 437.41258 L 190.35376 437.41258 L 190.35376 428.63172 L 193.50395 428.63172 L 193.50395 430.07039 C 193.80712 429.44752 194.11856 429.02033 194.43826 428.78881 C 194.76348 428.55179 195.16311 428.43328 195.63715 428.43328 z M 217.1299 428.43328 C 218.38666 428.43328 219.37886 428.62345 220.10646 429.00379 C 220.83406 429.38412 221.38804 429.93534 221.76838 430.65743 C 222.14872 431.37953 222.33888 432.31935 222.33888 433.4769 L 222.33888 433.85724 L 215.59201 433.85724 C 215.65268 434.39742 215.79874 434.79981 216.03022 435.0644 C 216.35544 435.44473 216.77988 435.63491 217.30353 435.63491 C 217.63426 435.63491 217.94846 435.55222 218.24611 435.38686 C 218.42801 435.28213 218.62369 435.09747 218.83315 434.83289 L 222.14871 435.13881 C 221.64159 436.02076 221.02975 436.65466 220.31317 437.04051 C 219.59659 437.42085 218.56857 437.61101 217.22912 437.61101 C 216.06606 437.61101 215.15104 437.44841 214.48407 437.12319 C 213.8171 436.79246 213.26312 436.27156 212.82215 435.56049 C 212.38669 434.84391 212.16896 434.0033 212.16896 433.03868 C 212.16896 431.66616 212.60718 430.55545 213.48361 429.70659 C 214.36555 428.85772 215.58099 428.43328 217.1299 428.43328 z M 232.48193 428.43328 C 233.52924 428.43328 234.30094 428.51321 234.79704 428.67306 C 235.29864 428.83291 235.71481 429.08096 236.04554 429.4172 C 236.38178 429.75344 236.66015 430.2082 236.88063 430.78146 L 233.6891 431.09565 C 233.60642 430.81453 233.46861 430.60783 233.27568 430.47553 C 233.0111 430.29915 232.6914 430.21095 232.31657 430.21095 C 231.93623 430.21095 231.65786 430.27986 231.48148 430.41766 C 231.3106 430.54995 231.22516 430.71255 231.22516 430.90548 C 231.22516 431.12045 231.33541 431.28307 231.55589 431.39331 C 231.77638 431.50355 232.25594 431.60277 232.99456 431.69096 C 234.11353 431.81774 234.94587 431.99414 235.49157 432.22013 C 236.03728 432.44613 236.45345 432.76859 236.74007 433.18751 C 237.03222 433.60644 237.17829 434.0667 237.17829 434.56831 C 237.17829 435.07542 237.02395 435.56876 236.71527 436.04832 C 236.4121 436.52787 235.92979 436.91097 235.26833 437.1976 C 234.61238 437.47872 233.71665 437.61928 232.58115 437.61928 C 230.97712 437.61928 229.83334 437.39053 229.14984 436.93302 C 228.47184 436.47551 228.03638 435.82507 227.84346 434.98172 L 231.18382 434.66753 C 231.32163 435.0644 231.51455 435.34827 231.7626 435.51915 C 232.01064 435.69003 232.34138 435.77547 232.75479 435.77547 C 233.20678 435.77547 233.5568 435.679 233.80485 435.48608 C 233.99777 435.34276 234.09424 435.16362 234.09424 434.94865 C 234.09424 434.70611 233.96745 434.5187 233.7139 434.38641 C 233.532 434.2927 233.04969 434.17694 232.26696 434.03914 C 231.09839 433.83519 230.28534 433.64778 229.82783 433.4769 C 229.37583 433.30051 228.99273 433.00561 228.67855 432.5922 C 228.36987 432.17879 228.21553 431.7075 228.21553 431.17833 C 228.21553 430.59956 228.38365 430.10071 228.71989 429.68178 C 229.05613 429.26286 229.51915 428.95143 230.10895 428.74747 C 230.69875 428.53801 231.48975 428.43328 232.48193 428.43328 z M 274.70881 428.43328 C 275.71753 428.43328 276.52782 428.49116 277.13967 428.60691 C 277.75152 428.71716 278.2614 428.95143 278.6693 429.30971 C 278.95593 429.55776 279.18192 429.91054 279.34729 430.36805 C 279.51265 430.82005 279.59534 431.25275 279.59534 431.66616 L 279.59534 435.54396 C 279.59534 435.95737 279.62015 436.28259 279.66975 436.51961 C 279.72488 436.75112 279.84064 437.04878 280.01702 437.41258 L 276.85855 437.41258 C 276.73177 437.18658 276.64909 437.0157 276.61051 436.89995 C 276.57191 436.77868 276.53332 436.59127 276.49475 436.33771 C 276.05378 436.76214 275.61556 437.06531 275.1801 437.24721 C 274.58479 437.48975 273.89301 437.61101 273.10478 437.61101 C 272.05747 437.61101 271.26096 437.36848 270.71526 436.88341 C 270.17507 436.39834 269.90497 435.80027 269.90497 435.0892 C 269.90497 434.42224 270.10066 433.87377 270.49202 433.44383 C 270.88338 433.01388 271.60548 432.69417 272.65829 432.48471 C 273.92057 432.23115 274.73913 432.05477 275.11396 431.95555 C 275.48878 431.85081 275.88566 431.71576 276.30458 431.5504 C 276.30458 431.13699 276.21915 430.84761 276.04827 430.68224 C 275.87739 430.51688 275.57698 430.43419 275.14703 430.43419 C 274.59581 430.43419 274.1824 430.52239 273.9068 430.69878 C 273.69182 430.83658 273.51818 431.09566 273.3859 431.47599 L 270.16956 431.13699 C 270.29082 430.57475 270.46445 430.13378 270.69045 429.81407 C 270.92196 429.48886 271.2527 429.20774 271.68264 428.97072 C 271.99132 428.79984 272.41576 428.66755 272.95595 428.57384 C 273.49614 428.48013 274.08043 428.43328 274.70881 428.43328 z M 300.74908 428.43328 C 301.7578 428.43328 302.5681 428.49116 303.17994 428.60691 C 303.79179 428.71716 304.30167 428.95143 304.70957 429.30971 C 304.9962 429.55776 305.22219 429.91054 305.38756 430.36805 C 305.55292 430.82005 305.63561 431.25275 305.63561 431.66616 L 305.63561 435.54396 C 305.63561 435.95737 305.66042 436.28259 305.71002 436.51961 C 305.76516 436.75112 305.88091 437.04878 306.05729 437.41258 L 302.89882 437.41258 C 302.77205 437.18658 302.68936 437.0157 302.65078 436.89995 C 302.61218 436.77868 302.5736 436.59127 302.53502 436.33771 C 302.09406 436.76214 301.65583 437.06531 301.22037 437.24721 C 300.62506 437.48975 299.93328 437.61101 299.14505 437.61101 C 298.09774 437.61101 297.30123 437.36848 296.75553 436.88341 C 296.21534 436.39834 295.94524 435.80027 295.94524 435.0892 C 295.94524 434.42224 296.14093 433.87377 296.53229 433.44383 C 296.92365 433.01388 297.64574 432.69417 298.69856 432.48471 C 299.96084 432.23115 300.7794 432.05477 301.15423 431.95555 C 301.52905 431.85081 301.92593 431.71576 302.34485 431.5504 C 302.34485 431.13699 302.25941 430.84761 302.08854 430.68224 C 301.91766 430.51688 301.61725 430.43419 301.1873 430.43419 C 300.63609 430.43419 300.22267 430.52239 299.94707 430.69878 C 299.73209 430.83658 299.55846 431.09566 299.42617 431.47599 L 296.20983 431.13699 C 296.33109 430.57475 296.50473 430.13378 296.73073 429.81407 C 296.96223 429.48886 297.29297 429.20774 297.72291 428.97072 C 298.03159 428.79984 298.45603 428.66755 298.99622 428.57384 C 299.53641 428.48013 300.1207 428.43328 300.74908 428.43328 z M 316.59721 428.43328 C 317.60594 428.43328 318.41623 428.49116 319.02807 428.60691 C 319.63992 428.71716 320.14979 428.95143 320.55769 429.30971 C 320.84432 429.55776 321.07032 429.91054 321.23569 430.36805 C 321.40106 430.82005 321.48374 431.25275 321.48374 431.66616 L 321.48374 435.54396 C 321.48374 435.95737 321.50855 436.28259 321.55815 436.51961 C 321.61328 436.75112 321.72904 437.04878 321.90542 437.41258 L 318.74695 437.41258 C 318.62017 437.18658 318.53749 437.0157 318.49891 436.89995 C 318.46031 436.77868 318.42172 436.59127 318.38315 436.33771 C 317.94218 436.76214 317.50396 437.06531 317.0685 437.24721 C 316.47319 437.48975 315.78141 437.61101 314.99318 437.61101 C 313.94587 437.61101 313.14936 437.36848 312.60366 436.88341 C 312.06347 436.39834 311.79337 435.80027 311.79337 435.0892 C 311.79337 434.42224 311.98906 433.87377 312.38042 433.44383 C 312.77178 433.01388 313.49387 432.69417 314.54669 432.48471 C 315.80897 432.23115 316.62753 432.05477 317.00236 431.95555 C 317.37718 431.85081 317.77405 431.71576 318.19298 431.5504 C 318.19298 431.13699 318.10755 430.84761 317.93667 430.68224 C 317.76579 430.51688 317.46538 430.43419 317.03543 430.43419 C 316.48422 430.43419 316.0708 430.52239 315.79519 430.69878 C 315.58022 430.83658 315.40659 431.09566 315.2743 431.47599 L 312.05795 431.13699 C 312.17923 430.57475 312.35286 430.13378 312.57885 429.81407 C 312.81037 429.48886 313.14109 429.20774 313.57104 428.97072 C 313.87972 428.79984 314.30416 428.66755 314.84435 428.57384 C 315.38454 428.48013 315.96883 428.43328 316.59721 428.43328 z M 334.25557 428.43328 C 334.95561 428.43328 335.50958 428.5573 335.91748 428.80535 C 336.32538 429.0534 336.65887 429.42271 336.91794 429.91329 C 337.4471 429.34003 337.92942 428.95143 338.36488 428.74747 C 338.80034 428.53801 339.33777 428.43328 339.97718 428.43328 C 340.91975 428.43328 341.65563 428.7144 342.1848 429.27664 C 342.71396 429.83337 342.97855 430.70705 342.97855 431.89767 L 342.97855 437.41258 L 339.60511 437.41258 L 339.60511 432.4103 C 339.60511 432.01343 339.52794 431.71852 339.3736 431.5256 C 339.1476 431.22243 338.86648 431.07085 338.53024 431.07085 C 338.13337 431.07085 337.81366 431.21416 337.57113 431.50079 C 337.32859 431.78743 337.20732 432.2477 337.20732 432.88159 L 337.20732 437.41258 L 333.83389 437.41258 L 333.83389 432.57566 C 333.83389 432.18981 333.81181 431.92798 333.76774 431.79018 C 333.69609 431.5697 333.57206 431.39331 333.39567 431.26101 C 333.21928 431.12321 333.01257 431.05431 332.77555 431.05431 C 332.3897 431.05431 332.07275 431.20038 331.82471 431.49253 C 331.57666 431.78467 331.45264 432.26423 331.45264 432.9312 L 331.45264 437.41258 L 328.0792 437.41258 L 328.0792 428.63172 L 331.22113 428.63172 L 331.22113 429.91329 C 331.67313 429.37861 332.12788 428.99827 332.58538 428.77228 C 333.0484 428.54628 333.60513 428.43328 334.25557 428.43328 z M 217.27046 430.42592 C 216.73578 430.42592 216.30858 430.63814 215.98888 431.06258 C 215.78493 431.32716 215.6554 431.72128 215.60028 432.24493 L 218.91584 432.24493 C 218.8497 431.5945 218.67332 431.12872 218.38667 430.8476 C 218.10555 430.56648 217.73348 430.42592 217.27046 430.42592 z M 180.45927 433.24539 C 179.99625 433.41076 179.51394 433.55683 179.01233 433.68361 C 178.32883 433.86551 177.89612 434.04465 177.71422 434.22104 C 177.5268 434.40294 177.4331 434.60964 177.4331 434.84116 C 177.4331 435.10574 177.52405 435.32347 177.70595 435.49435 C 177.89336 435.65971 178.16622 435.7424 178.5245 435.7424 C 178.89933 435.7424 179.2466 435.65144 179.5663 435.46954 C 179.89152 435.28764 180.12027 435.06716 180.25256 434.80809 C 180.39036 434.54351 180.45927 434.20175 180.45927 433.78282 L 180.45927 433.24539 z M 276.30458 433.24539 C 275.84156 433.41076 275.35925 433.55683 274.85764 433.68361 C 274.17414 433.86551 273.74143 434.04465 273.55953 434.22104 C 273.37212 434.40294 273.27841 434.60964 273.27841 434.84116 C 273.27841 435.10574 273.36936 435.32347 273.55126 435.49435 C 273.73867 435.65971 274.01153 435.7424 274.36982 435.7424 C 274.74464 435.7424 275.09191 435.65144 275.41161 435.46954 C 275.73683 435.28764 275.96558 435.06716 276.09788 434.80809 C 276.23568 434.54351 276.30458 434.20175 276.30458 433.78282 L 276.30458 433.24539 z M 302.34485 433.24539 C 301.88183 433.41076 301.39951 433.55683 300.89791 433.68361 C 300.21441 433.86551 299.7817 434.04465 299.5998 434.22104 C 299.41239 434.40294 299.31868 434.60964 299.31868 434.84116 C 299.31868 435.10574 299.40963 435.32347 299.59153 435.49435 C 299.77895 435.65971 300.0518 435.7424 300.41009 435.7424 C 300.78491 435.7424 301.13218 435.65144 301.45188 435.46954 C 301.7771 435.28764 302.00585 435.06716 302.13815 434.80809 C 302.27595 434.54351 302.34485 434.20175 302.34485 433.78282 L 302.34485 433.24539 z M 318.19298 433.24539 C 317.72996 433.41076 317.24765 433.55683 316.74604 433.68361 C 316.06253 433.86551 315.62983 434.04465 315.44793 434.22104 C 315.26052 434.40294 315.16681 434.60964 315.16681 434.84116 C 315.16681 435.10574 315.25776 435.32347 315.43966 435.49435 C 315.62707 435.65971 315.89992 435.7424 316.25822 435.7424 C 316.63303 435.7424 316.98031 435.65144 317.30001 435.46954 C 317.62523 435.28764 317.85399 435.06716 317.98628 434.80809 C 318.12408 434.54351 318.19298 434.20175 318.19298 433.78282 L 318.19298 433.24539 z "
       inkscape:export-filename="2024_kaffon_mainK_with_limited.png"
       inkscape:export-xdpi="72"
       inkscape:export-ydpi="72" />
  </g>
</svg>
